<svg width="86" height="86" viewBox="0 0 86 86" fill="none" xmlns="http://www.w3.org/2000/svg">
<path d="M43 43C37.0875 43 32.026 40.8948 27.8156 36.6844C23.6052 32.4739 21.5 27.4125 21.5 21.5C21.5 15.5875 23.6052 10.526 27.8156 6.31562C32.026 2.10521 37.0875 0 43 0C48.9125 0 53.9739 2.10521 58.1843 6.31562C62.3948 10.526 64.5 15.5875 64.5 21.5C64.5 27.4125 62.3948 32.4739 58.1843 36.6844C53.9739 40.8948 48.9125 43 43 43ZM0 86V70.95C0 67.9041 0.784751 65.1056 2.35425 62.5542C3.92375 60.0029 6.00566 58.0536 8.6 56.7062C14.1542 53.9291 19.7979 51.8472 25.5312 50.4605C31.2646 49.0737 37.0875 48.3786 43 48.375C48.9125 48.3714 54.7354 49.0666 60.4687 50.4605C66.2021 51.8544 71.8458 53.9363 77.4 56.7062C79.9979 58.05 82.0816 59.9993 83.6511 62.5542C85.2206 65.1091 86.0035 67.9077 86 70.95V86H0ZM10.75 75.25H75.25V70.95C75.25 69.9646 75.0045 69.0687 74.5136 68.2625C74.0227 67.4562 73.3723 66.8291 72.5625 66.3812C67.725 63.9625 62.8427 62.1493 57.9156 60.9417C52.9885 59.7341 48.0166 59.1286 43 59.125C37.9833 59.1214 33.0114 59.727 28.0844 60.9417C23.1573 62.1565 18.275 63.9696 13.4375 66.3812C12.6312 66.8291 11.9809 67.4562 11.4864 68.2625C10.9919 69.0687 10.7464 69.9646 10.75 70.95V75.25ZM43 32.25C45.9562 32.25 48.4879 31.1983 50.5949 29.0949C52.7019 26.9914 53.7536 24.4598 53.75 21.5C53.7464 18.5402 52.6947 16.0103 50.5949 13.9105C48.495 11.8107 45.9634 10.7572 43 10.75C40.0366 10.7428 37.5067 11.7963 35.4105 13.9105C33.3142 16.0247 32.2607 18.5545 32.25 21.5C32.2392 24.4455 33.2927 26.9771 35.4105 29.0949C37.5282 31.2126 40.0581 32.2643 43 32.25Z" fill="white"/>
</svg>
