<svg width="128" height="128" viewBox="0 0 128 128" fill="none" xmlns="http://www.w3.org/2000/svg">
<path d="M32 32H40V48H32V32ZM32 56H40V72H32V56ZM56 32H64V48H56V32ZM56 56H64V72H56V56ZM32 80H40V96H32V80ZM56 80H64V96H56V80Z" fill="#FFFDFD"/>
<path d="M120 56C120 53.8783 119.157 51.8434 117.657 50.3431C116.157 48.8429 114.122 48 112 48H88V16C88 13.8783 87.1571 11.8434 85.6569 10.3431C84.1566 8.84285 82.1217 8 80 8H16C13.8783 8 11.8434 8.84285 10.3431 10.3431C8.84285 11.8434 8 13.8783 8 16V120H120V56ZM16 16H80V112H16V16ZM88 112V56H112V112H88Z" fill="#FFFDFD"/>
</svg>
