<svg width="128" height="128" viewBox="0 0 128 128" fill="none" xmlns="http://www.w3.org/2000/svg">
<path d="M65.4933 57.9911C61.4943 57.949 57.5971 56.7247 54.2924 54.4723C50.9878 52.22 48.4234 49.0402 46.9221 45.3335C45.4208 41.6267 45.0498 37.5587 45.8557 33.6415C46.6616 29.7243 48.6085 26.1331 51.4511 23.32C54.2938 20.507 57.9052 18.5979 61.8306 17.833C65.756 17.0681 69.82 17.4818 73.5108 19.0218C77.2016 20.5618 80.3543 23.1593 82.572 26.4874C84.7896 29.8154 85.9731 33.7252 85.9733 37.7244C85.9357 43.1249 83.7591 48.2902 79.9204 52.089C76.0817 55.8877 70.8938 58.0101 65.4933 57.9911ZM65.4933 24.5689C62.9009 24.6109 60.3787 25.4181 58.2435 26.889C56.1083 28.3598 54.4554 30.4288 53.4923 32.8361C52.5292 35.2434 52.2989 37.8815 52.8304 40.4192C53.3618 42.957 54.6313 45.2811 56.4793 47.0996C58.3274 48.9182 60.6716 50.1501 63.2175 50.6407C65.7635 51.1312 68.3976 50.8585 70.7891 49.8569C73.1805 48.8552 75.2227 47.1692 76.659 45.0106C78.0953 42.8521 78.8618 40.3172 78.8622 37.7244C78.8246 34.21 77.3973 30.8534 74.8922 28.3882C72.387 25.9231 69.0079 24.5499 65.4933 24.5689Z" fill="#FFF5F5"/>
<path d="M65.4933 57.9911C61.4943 57.949 57.5971 56.7247 54.2925 54.4723C50.9878 52.22 48.4234 49.0402 46.9221 45.3335C45.4209 41.6267 45.0498 37.5587 45.8558 33.6415C46.6617 29.7243 48.6085 26.1331 51.4512 23.32C54.2938 20.507 57.9052 18.5979 61.8306 17.833C65.756 17.0681 69.82 17.4818 73.5108 19.0218C77.2017 20.5618 80.3544 23.1593 82.572 26.4874C84.7897 29.8154 85.9731 33.7252 85.9733 37.7244C85.9357 43.1249 83.7591 48.2902 79.9204 52.089C76.0817 55.8877 70.8938 58.0101 65.4933 57.9911ZM65.4933 24.5689C62.9009 24.6109 60.3787 25.4181 58.2435 26.889C56.1083 28.3598 54.4554 30.4288 53.4923 32.8361C52.5292 35.2434 52.299 37.8815 52.8304 40.4192C53.3619 42.957 54.6313 45.2811 56.4794 47.0996C58.3274 48.9182 60.6716 50.1501 63.2176 50.6407C65.7635 51.1312 68.3976 50.8585 70.7891 49.8569C73.1806 48.8552 75.2227 47.1692 76.659 45.0106C78.0954 42.8521 78.8619 40.3172 78.8622 37.7244C78.8247 34.21 77.3973 30.8534 74.8922 28.3882C72.3871 25.9231 69.0079 24.5499 65.4933 24.5689ZM77.9022 62.7556C62.1317 60.0113 45.8964 62.5091 31.68 69.8667C30.6708 70.427 29.8352 71.2541 29.2645 72.2574C28.6939 73.2608 28.4102 74.4018 28.4444 75.5556V88.2133C28.4444 89.1563 28.819 90.0607 29.4858 90.7275C30.1526 91.3943 31.057 91.7689 32 91.7689C32.943 91.7689 33.8473 91.3943 34.5141 90.7275C35.1809 90.0607 35.5555 89.1563 35.5555 88.2133V76.0178C48.7384 69.4032 63.7297 67.3044 78.2222 70.0444L77.9022 62.7556Z" fill="#FFF5F5"/>
<path d="M117.333 78.2222H93.5111V72.96C93.5111 72.017 93.1365 71.1126 92.4697 70.4458C91.8029 69.779 90.8986 69.4044 89.9556 69.4044C89.0126 69.4044 88.1082 69.779 87.4414 70.4458C86.7746 71.1126 86.4 72.017 86.4 72.96V78.2222H60.4445C59.5015 78.2222 58.5971 78.5968 57.9303 79.2636C57.2635 79.9304 56.8889 80.8348 56.8889 81.7778V117.333C56.8889 118.276 57.2635 119.181 57.9303 119.847C58.5971 120.514 59.5015 120.889 60.4445 120.889H117.333C118.276 120.889 119.181 120.514 119.848 119.847C120.514 119.181 120.889 118.276 120.889 117.333V81.7778C120.889 80.8348 120.514 79.9304 119.848 79.2636C119.181 78.5968 118.276 78.2222 117.333 78.2222ZM113.778 113.778H64V85.3333H86.4V86.7911C86.4 87.7341 86.7746 88.6385 87.4414 89.3053C88.1082 89.9721 89.0126 90.3467 89.9556 90.3467C90.8986 90.3467 91.8029 89.9721 92.4697 89.3053C93.1365 88.6385 93.5111 87.7341 93.5111 86.7911V85.3333H113.778V113.778Z" fill="#FFF5F5"/>
<path d="M77.5466 97.4933H98.7378V102.471H77.5466V97.4933ZM38.5422 43.52C28.6984 43.6847 19.0254 46.1182 10.2755 50.6311C9.32393 51.1338 8.52683 51.8856 7.96945 52.8062C7.41207 53.7268 7.11537 54.7816 7.11108 55.8578V66.88C7.11108 67.823 7.48569 68.7274 8.15248 69.3942C8.81928 70.061 9.72365 70.4356 10.6666 70.4356C11.6096 70.4356 12.514 70.061 13.1808 69.3942C13.8476 68.7274 14.2222 67.823 14.2222 66.88V56.5689C22.5824 52.4076 31.8384 50.3683 41.1733 50.6311C39.9529 48.4023 39.0664 46.0064 38.5422 43.52ZM117.724 50.5956C109.877 46.479 101.252 44.0563 92.4089 43.4845C91.8862 45.9662 91.0122 48.3607 89.8133 50.5956C98.1441 50.7961 106.327 52.8359 113.778 56.5689V66.88C113.778 67.823 114.152 68.7274 114.819 69.3942C115.486 70.061 116.39 70.4356 117.333 70.4356C118.276 70.4356 119.181 70.061 119.847 69.3942C120.514 68.7274 120.889 67.823 120.889 66.88V55.8578C120.891 54.7756 120.597 53.7133 120.04 52.7859C119.482 51.8584 118.681 51.101 117.724 50.5956ZM37.9022 37.7245V35.3422C35.1168 34.9695 32.5825 33.5368 30.8269 31.3426C29.0712 29.1483 28.2295 26.3614 28.4769 23.5622C28.7243 20.7629 30.0418 18.1669 32.1551 16.3145C34.2684 14.4622 37.0146 13.4962 39.8222 13.6178C42.7424 13.6125 45.5493 14.748 47.6444 16.7822C49.4938 15.2587 51.5239 13.969 53.6889 12.9422C51.2697 10.1606 48.0644 8.17721 44.4956 7.25359C40.9267 6.32997 37.1617 6.50943 33.6968 7.76833C30.232 9.02722 27.2299 11.3065 25.0863 14.3056C22.9427 17.3048 21.7582 20.8831 21.6889 24.5689C21.7635 29.08 23.5171 33.4013 26.6073 36.6887C29.6974 39.9761 33.9021 41.9934 38.4 42.3467C38.098 40.8236 37.9314 39.2769 37.9022 37.7245ZM88.0711 6.50667C85.6277 6.50721 83.2089 6.99487 80.9562 7.94114C78.7034 8.88741 76.6619 10.2733 74.9511 12.0178C77.3525 12.894 79.6248 14.09 81.7066 15.5733C83.3665 14.4211 85.308 13.7409 87.3241 13.6054C89.3402 13.4698 91.3553 13.884 93.1545 14.8036C94.9537 15.7233 96.4696 17.114 97.5405 18.8275C98.6115 20.541 99.1973 22.5131 99.2355 24.5333C99.2132 26.6085 98.6035 28.6349 97.4771 30.3779C96.3508 32.1209 94.7538 33.5093 92.8711 34.3822C93.0156 35.4785 93.0868 36.5832 93.0844 37.6889C93.0733 39.118 92.9544 40.5443 92.7289 41.9556C96.6022 40.9598 100.038 38.7114 102.501 35.5604C104.964 32.4094 106.316 28.5326 106.347 24.5333C106.3 19.7238 104.351 15.1282 100.927 11.7505C97.5027 8.37288 92.8809 6.48766 88.0711 6.50667Z" fill="#FFF5F5"/>
</svg>
