<svg width="92" height="92" viewBox="0 0 92 92" fill="none" xmlns="http://www.w3.org/2000/svg">
<path fill-rule="evenodd" clip-rule="evenodd" d="M79.4545 9.2H12.5455C11.4364 9.2 10.3727 9.68464 9.58846 10.5473C8.80422 11.41 8.36363 12.58 8.36363 13.8V78.2C8.36363 79.42 8.80422 80.59 9.58846 81.4527C10.3727 82.3154 11.4364 82.8 12.5455 82.8H79.4545C80.5636 82.8 81.6273 82.3154 82.4115 81.4527C83.1958 80.59 83.6363 79.42 83.6363 78.2V13.8C83.6363 12.58 83.1958 11.41 82.4115 10.5473C81.6273 9.68464 80.5636 9.2 79.4545 9.2ZM12.5455 0C9.21819 0 6.02721 1.45392 3.67448 4.04193C1.32175 6.62993 0 10.14 0 13.8V78.2C0 81.86 1.32175 85.3701 3.67448 87.9581C6.02721 90.5461 9.21819 92 12.5455 92H79.4545C82.7818 92 85.9728 90.5461 88.3255 87.9581C90.6782 85.3701 92 81.86 92 78.2V13.8C92 10.14 90.6782 6.62993 88.3255 4.04193C85.9728 1.45392 82.7818 0 79.4545 0H12.5455ZM20.9091 23H29.2727V32.2H20.9091V23ZM41.8182 23C40.7091 23 39.6454 23.4846 38.8612 24.3473C38.0769 25.21 37.6364 26.38 37.6364 27.6C37.6364 28.82 38.0769 29.99 38.8612 30.8527C39.6454 31.7154 40.7091 32.2 41.8182 32.2H66.9091C68.0182 32.2 69.0818 31.7154 69.8661 30.8527C70.6503 29.99 71.0909 28.82 71.0909 27.6C71.0909 26.38 70.6503 25.21 69.8661 24.3473C69.0818 23.4846 68.0182 23 66.9091 23H41.8182ZM29.2727 41.4H20.9091V50.6H29.2727V41.4ZM37.6364 46C37.6364 44.78 38.0769 43.61 38.8612 42.7473C39.6454 41.8846 40.7091 41.4 41.8182 41.4H66.9091C68.0182 41.4 69.0818 41.8846 69.8661 42.7473C70.6503 43.61 71.0909 44.78 71.0909 46C71.0909 47.22 70.6503 48.39 69.8661 49.2527C69.0818 50.1154 68.0182 50.6 66.9091 50.6H41.8182C40.7091 50.6 39.6454 50.1154 38.8612 49.2527C38.0769 48.39 37.6364 47.22 37.6364 46ZM29.2727 59.8H20.9091V69H29.2727V59.8ZM37.6364 64.4C37.6364 63.18 38.0769 62.01 38.8612 61.1473C39.6454 60.2846 40.7091 59.8 41.8182 59.8H66.9091C68.0182 59.8 69.0818 60.2846 69.8661 61.1473C70.6503 62.01 71.0909 63.18 71.0909 64.4C71.0909 65.62 70.6503 66.79 69.8661 67.6527C69.0818 68.5154 68.0182 69 66.9091 69H41.8182C40.7091 69 39.6454 68.5154 38.8612 67.6527C38.0769 66.79 37.6364 65.62 37.6364 64.4Z" fill="#152CA2"/>
</svg>
