<svg width="80" height="84" viewBox="0 0 80 84" fill="none" xmlns="http://www.w3.org/2000/svg">
<path d="M12.6 84V65.94C8.61 62.3 5.5132 58.0482 3.3096 53.1846C1.106 48.321 0.0028 43.1928 0 37.8C0 27.3 3.675 18.375 11.025 11.025C18.375 3.675 27.3 0 37.8 0C46.55 0 54.3032 2.5732 61.0596 7.7196C67.816 12.866 72.2078 19.5678 74.235 27.825L79.695 49.35C80.045 50.68 79.8 51.8882 78.96 52.9746C78.12 54.061 77 54.6028 75.6 54.6H67.2V67.2C67.2 69.51 66.3782 71.4882 64.7346 73.1346C63.091 74.781 61.1128 75.6028 58.8 75.6H50.4V84H42V67.2H58.8V46.2H70.14L66.15 29.925C64.54 23.555 61.11 18.375 55.86 14.385C50.61 10.395 44.59 8.4 37.8 8.4C29.68 8.4 22.75 11.235 17.01 16.905C11.27 22.575 8.4 29.47 8.4 37.59C8.4 41.79 9.2582 45.78 10.9746 49.56C12.691 53.34 15.1228 56.7 18.27 59.64L21 62.16V84H12.6ZM37.8 58.8C38.99 58.8 39.9882 58.3968 40.7946 57.5904C41.601 56.784 42.0028 55.7872 42 54.6C41.9972 53.4128 41.594 52.416 40.7904 51.6096C39.9868 50.8032 38.99 50.4 37.8 50.4C36.61 50.4 35.6132 50.8032 34.8096 51.6096C34.006 52.416 33.6028 53.4128 33.6 54.6C33.5972 55.7872 34.0004 56.7854 34.8096 57.5946C35.6188 58.4038 36.6156 58.8056 37.8 58.8ZM34.65 45.36H41.055C41.055 43.61 41.2832 42.1932 41.7396 41.1096C42.196 40.026 43.1228 38.7128 44.52 37.17C45.78 35.77 47.005 34.3532 48.195 32.9196C49.385 31.486 49.98 29.6128 49.98 27.3C49.98 24.36 48.8432 21.875 46.5696 19.845C44.296 17.815 41.4778 16.8 38.115 16.8C35.315 16.8 32.7782 17.605 30.5046 19.215C28.231 20.825 26.6378 22.925 25.725 25.515L31.5 27.93C31.99 26.39 32.8482 25.1468 34.0746 24.2004C35.301 23.254 36.6478 22.7822 38.115 22.785C39.655 22.785 40.9332 23.205 41.9496 24.045C42.966 24.885 43.4728 25.97 43.47 27.3C43.47 28.77 43.0332 30.0832 42.1596 31.2396C41.286 32.396 40.2528 33.5678 39.06 34.755C37.66 36.225 36.575 37.695 35.805 39.165C35.035 40.635 34.65 42.7 34.65 45.36Z" fill="#152CA2"/>
</svg>
