<svg width="92" height="92" viewBox="0 0 92 92" fill="none" xmlns="http://www.w3.org/2000/svg">
<path fill-rule="evenodd" clip-rule="evenodd" d="M79.4545 9.19999H12.5454C11.4364 9.19999 10.3727 9.68463 9.58845 10.5473C8.80421 11.41 8.36363 12.58 8.36363 13.8V78.1999C8.36363 79.4199 8.80421 80.59 9.58845 81.4526C10.3727 82.3153 11.4364 82.7999 12.5454 82.7999H79.4545C80.5636 82.7999 81.6272 82.3153 82.4115 81.4526C83.1957 80.59 83.6363 79.4199 83.6363 78.1999V13.8C83.6363 12.58 83.1957 11.41 82.4115 10.5473C81.6272 9.68463 80.5636 9.19999 79.4545 9.19999ZM12.5454 0C9.21818 0 6.0272 1.45392 3.67448 4.04192C1.32175 6.62992 0 10.14 0 13.8V78.1999C0 81.8599 1.32175 85.37 3.67448 87.958C6.0272 90.546 9.21818 91.9999 12.5454 91.9999H79.4545C82.7817 91.9999 85.9727 90.546 88.3254 87.958C90.6782 85.37 91.9999 81.8599 91.9999 78.1999V13.8C91.9999 10.14 90.6782 6.62992 88.3254 4.04192C85.9727 1.45392 82.7817 0 79.4545 0H12.5454ZM20.9091 23H29.2727V32.2H20.9091V23ZM41.8181 23C40.7091 23 39.6454 23.4846 38.8612 24.3473C38.0769 25.21 37.6363 26.38 37.6363 27.6C37.6363 28.82 38.0769 29.99 38.8612 30.8527C39.6454 31.7153 40.7091 32.2 41.8181 32.2H66.909C68.0181 32.2 69.0818 31.7153 69.866 30.8527C70.6503 29.99 71.0908 28.82 71.0908 27.6C71.0908 26.38 70.6503 25.21 69.866 24.3473C69.0818 23.4846 68.0181 23 66.909 23H41.8181ZM29.2727 41.4H20.9091V50.6H29.2727V41.4ZM37.6363 46C37.6363 44.78 38.0769 43.6099 38.8612 42.7473C39.6454 41.8846 40.7091 41.4 41.8181 41.4H66.909C68.0181 41.4 69.0818 41.8846 69.866 42.7473C70.6503 43.6099 71.0908 44.78 71.0908 46C71.0908 47.22 70.6503 48.39 69.866 49.2527C69.0818 50.1153 68.0181 50.6 66.909 50.6H41.8181C40.7091 50.6 39.6454 50.1153 38.8612 49.2527C38.0769 48.39 37.6363 47.22 37.6363 46ZM29.2727 59.8H20.9091V68.9999H29.2727V59.8ZM37.6363 64.3999C37.6363 63.18 38.0769 62.0099 38.8612 61.1473C39.6454 60.2846 40.7091 59.8 41.8181 59.8H66.909C68.0181 59.8 69.0818 60.2846 69.866 61.1473C70.6503 62.0099 71.0908 63.18 71.0908 64.3999C71.0908 65.6199 70.6503 66.79 69.866 67.6526C69.0818 68.5153 68.0181 68.9999 66.909 68.9999H41.8181C40.7091 68.9999 39.6454 68.5153 38.8612 67.6526C38.0769 66.79 37.6363 65.6199 37.6363 64.3999Z" fill="#152CA2"/>
</svg>
